name Walk4.mot
datacolumns 19
datarows 15
range 1.19100000 1.20500000
endheader

                time	   L_ground_force_vx	   L_ground_force_vy	   L_ground_force_vz	   L_ground_force_px	   L_ground_force_py	   L_ground_force_pz	   R_ground_force_vx	   R_ground_force_vy	   R_ground_force_vz	   R_ground_force_px	   R_ground_force_py	   R_ground_force_pz	   L_ground_torque_x	   L_ground_torque_y	   L_ground_torque_z	   R_ground_torque_x	   R_ground_torque_y	   R_ground_torque_z	
          1.19100000	          0.00000000	          0.00000000	          0.00000000	          0.00000000	          0.00000000	          0.00000000	          0.00000000	          0.00000000	          0.00000000	          0.00000000	          0.00000000	          0.00000000	          0.00000000	          0.00000000	          0.00000000	          0.00000000	          0.00000000	          0.00000000	
          1.19200000	          0.00000000	          0.00000000	          0.00000000	          0.00000000	          0.00000000	          0.00000000	          0.00000000	          0.00000000	          0.00000000	          0.00000000	          0.00000000	          0.00000000	          0.00000000	          0.00000000	          0.00000000	          0.00000000	          0.00000000	          0.00000000	
          1.19300000	          0.00000000	          0.00000000	          0.00000000	          0.00000000	          0.00000000	          0.00000000	          0.00000000	          0.00000000	          0.00000000	          0.00000000	          0.00000000	          0.00000000	          0.00000000	          0.00000000	          0.00000000	          0.00000000	          0.00000000	          0.00000000	
          1.19400000	         -1.95628458	         11.63684504	          2.23373290	         -0.34470851	          0.00000000	          0.04260037	          0.00000000	          0.00000000	          0.00000000	          0.00000000	          0.00000000	          0.00000000	          0.00000000	         -0.02966114	          0.00000000	          0.00000000	          0.00000000	          0.00000000	
          1.19500000	         -2.56798672	         19.04642954	          3.11237403	         -0.35194204	          0.00000000	          0.03196224	          0.00000000	          0.00000000	          0.00000000	          0.00000000	          0.00000000	          0.00000000	          0.00000000	         -0.06626030	          0.00000000	          0.00000000	          0.00000000	          0.00000000	
          1.19600000	         -3.20173867	         30.20846869	          3.95665240	         -0.35903984	          0.00000000	          0.02225783	          0.00000000	          0.00000000	          0.00000000	          0.00000000	          0.00000000	          0.00000000	          0.00000000	         -0.08515166	          0.00000000	          0.00000000	          0.00000000	          0.00000000	
          1.19700000	         -4.03919837	         47.68605607	          4.73104162	         -0.36511698	          0.00000000	          0.01531592	          0.00000000	          0.00000000	          0.00000000	          0.00000000	          0.00000000	          0.00000000	          0.00000000	         -0.05797331	          0.00000000	          0.00000000	          0.00000000	          0.00000000	
          1.19800000	         -5.23404034	         74.73725554	          5.33731367	         -0.36951237	          0.00000000	          0.01141913	          0.00000000	          0.00000000	          0.00000000	          0.00000000	          0.00000000	          0.00000000	          0.00000000	          0.02788193	          0.00000000	          0.00000000	          0.00000000	          0.00000000	
          1.19900000	         -6.77790762	        114.55456330	          5.54089687	         -0.37215808	          0.00000000	          0.00950917	          0.00000000	          0.00000000	          0.00000000	          0.00000000	          0.00000000	          0.00000000	          0.00000000	          0.16366621	          0.00000000	          0.00000000	          0.00000000	          0.00000000	
          1.20000000	         -8.45680192	        169.02869746	          4.94742870	         -0.37345463	          0.00000000	          0.00848999	          0.00000000	          0.00000000	          0.00000000	          0.00000000	          0.00000000	          0.00000000	          0.00000000	          0.32315028	          0.00000000	          0.00000000	          0.00000000	          0.00000000	
          1.20100000	         -9.94221994	        237.29293429	          3.03481692	         -0.37392725	          0.00000000	          0.00781548	          0.00000000	          0.00000000	          0.00000000	          0.00000000	          0.00000000	          0.00000000	          0.00000000	          0.47915648	          0.00000000	          0.00000000	          0.00000000	          0.00000000	
          1.20200000	        -10.96105708	        314.86600745	         -0.71937764	         -0.37398364	          0.00000000	          0.00736074	          0.00000000	          0.00000000	          0.00000000	          0.00000000	          0.00000000	          0.00000000	          0.00000000	          0.61334782	          0.00000000	          0.00000000	          0.00000000	          0.00000000	
          1.20300000	        -11.42629184	        394.27299960	         -6.62544023	         -0.37386522	          0.00000000	          0.00715257	          0.00000000	          0.00000000	          0.00000000	          0.00000000	          0.00000000	          0.00000000	          0.00000000	          0.70511604	          0.00000000	          0.00000000	          0.00000000	          0.00000000	
          1.20400000	        -11.47940926	        467.15300212	        -14.61859440	         -0.37369484	          0.00000000	          0.00720182	          0.00000000	          0.00000000	          0.00000000	          0.00000000	          0.00000000	          0.00000000	          0.00000000	          0.73136758	          0.00000000	          0.00000000	          0.00000000	          0.00000000	
          1.20500000	        -11.46977027	        526.71319404	        -24.26634751	         -0.37352323	          0.00000000	          0.00745838	          0.00000000	          0.00000000	          0.00000000	          0.00000000	          0.00000000	          0.00000000	          0.00000000	          0.69111107	          0.00000000	          0.00000000	          0.00000000	          0.00000000	
